<svg width="28" height="28" viewBox="0 0 28 28" fill="none" xmlns="http://www.w3.org/2000/svg">
<path d="M14 28C12.0867 28 10.2783 27.6323 8.575 26.8968C6.87167 26.1623 5.3844 25.1589 4.1132 23.8868C2.84107 22.6156 1.83773 21.1283 1.1032 19.425C0.367733 17.7217 0 15.9133 0 14C0 12.0633 0.367733 10.2494 1.1032 8.5582C1.83773 6.86607 2.84107 5.3844 4.1132 4.1132C5.3844 2.84107 6.87167 1.83727 8.575 1.1018C10.2783 0.367267 12.0867 0 14 0C15.9367 0 17.7506 0.367267 19.4418 1.1018C21.1339 1.83727 22.6156 2.84107 23.8868 4.1132C25.1589 5.3844 26.1623 6.86607 26.8968 8.5582C27.6323 10.2494 28 12.0633 28 14V16.03C28 17.4067 27.5277 18.5789 26.5832 19.5468C25.6377 20.5156 24.4767 21 23.1 21C22.26 21 21.4783 20.8133 20.755 20.44C20.0317 20.0667 19.4367 19.5767 18.97 18.97C18.34 19.6 17.5994 20.0961 16.7482 20.4582C15.8961 20.8194 14.98 21 14 21C12.0633 21 10.4127 20.3173 9.0482 18.9518C7.68273 17.5873 7 15.9367 7 14C7 12.0633 7.68273 10.4123 9.0482 9.0468C10.4127 7.68227 12.0633 7 14 7C15.9367 7 17.5877 7.68227 18.9532 9.0468C20.3177 10.4123 21 12.0633 21 14V16.03C21 16.7067 21.21 17.2373 21.63 17.6218C22.05 18.0073 22.54 18.2 23.1 18.2C23.66 18.2 24.15 18.0073 24.57 17.6218C24.99 17.2373 25.2 16.7067 25.2 16.03V14C25.2 10.9433 24.0973 8.31227 21.8918 6.1068C19.6873 3.90227 17.0567 2.8 14 2.8C10.9433 2.8 8.31227 3.90227 6.1068 6.1068C3.90227 8.31227 2.8 10.9433 2.8 14C2.8 17.0567 3.90227 19.6873 6.1068 21.8918C8.31227 24.0973 10.9433 25.2 14 25.2H21V28H14ZM14 18.2C15.1667 18.2 16.1583 17.7917 16.975 16.975C17.7917 16.1583 18.2 15.1667 18.2 14C18.2 12.8333 17.7917 11.8417 16.975 11.025C16.1583 10.2083 15.1667 9.8 14 9.8C12.8333 9.8 11.8417 10.2083 11.025 11.025C10.2083 11.8417 9.8 12.8333 9.8 14C9.8 15.1667 10.2083 16.1583 11.025 16.975C11.8417 17.7917 12.8333 18.2 14 18.2Z" fill="#E3DCD0"/>
</svg>
