<svg width="28" height="28" viewBox="0 0 28 28" fill="none" xmlns="http://www.w3.org/2000/svg">
<path d="M23.8701 4.074C22.5865 2.7775 21.0577 1.74953 19.3728 1.05007C17.6878 0.350608 15.8804 -0.00635608 14.0561 -5.25863e-07C6.41207 -5.25863e-07 0.182069 6.23 0.182069 13.874C0.182069 16.324 0.826068 18.704 2.03007 20.804L0.0700684 28L7.42007 26.068C9.45007 27.174 11.7321 27.762 14.0561 27.762C21.7001 27.762 27.9301 21.532 27.9301 13.888C27.9301 10.178 26.4881 6.692 23.8701 4.074ZM14.0561 25.41C11.9841 25.41 9.95407 24.85 8.17607 23.8L7.75607 23.548L3.38807 24.696L4.55007 20.44L4.27007 20.006C3.11891 18.1678 2.50766 16.0429 2.50607 13.874C2.50607 7.518 7.68607 2.338 14.0421 2.338C17.1221 2.338 20.0201 3.542 22.1901 5.726C23.2645 6.79555 24.116 8.06773 24.6952 9.46879C25.2744 10.8699 25.5697 12.372 25.5641 13.888C25.5921 20.244 20.4121 25.41 14.0561 25.41ZM20.3841 16.786C20.0341 16.618 18.3261 15.778 18.0181 15.652C17.6961 15.54 17.4721 15.484 17.2341 15.82C16.9961 16.17 16.3381 16.954 16.1421 17.178C15.9461 17.416 15.7361 17.444 15.3861 17.262C15.0361 17.094 13.9161 16.716 12.6001 15.54C11.5641 14.616 10.8781 13.482 10.6681 13.132C10.4721 12.782 10.6401 12.6 10.8221 12.418C10.9761 12.264 11.1721 12.012 11.3401 11.816C11.5081 11.62 11.5781 11.466 11.6901 11.242C11.8021 11.004 11.7461 10.808 11.6621 10.64C11.5781 10.472 10.8781 8.764 10.5981 8.064C10.3181 7.392 10.0241 7.476 9.81407 7.462H9.14207C8.90407 7.462 8.54007 7.546 8.21807 7.896C7.91007 8.246 7.01407 9.086 7.01407 10.794C7.01407 12.502 8.26007 14.154 8.42807 14.378C8.59607 14.616 10.8781 18.116 14.3501 19.614C15.1761 19.978 15.8201 20.188 16.3241 20.342C17.1501 20.608 17.9061 20.566 18.5081 20.482C19.1801 20.384 20.5661 19.642 20.8461 18.83C21.1401 18.018 21.1401 17.332 21.0421 17.178C20.9441 17.024 20.7341 16.954 20.3841 16.786Z" fill="#E3DCD0"/>
</svg>
