<svg xmlns="http://www.w3.org/2000/svg" width="32" height="33" viewBox="0 0 32 33" fill="none">
<path d="M16 0.0233154C11.6505 0.0233154 11.1084 0.0443181 9.40617 0.116327C7.69696 0.200338 6.54082 0.465371 5.52069 0.86142C4.46856 1.27347 3.57245 1.82054 2.68734 2.71065C1.79622 3.59576 1.24416 4.49187 0.838105 5.54401C0.442055 6.56413 0.177022 7.72028 0.0930116 9.42949C0.016002 11.1327 0 11.6738 0 16.0233C0 20.3729 0.0210026 20.9149 0.0930116 22.6171C0.177022 24.3214 0.442055 25.4825 0.838105 26.5026C1.25016 27.5548 1.79722 28.4509 2.68734 29.336C3.57245 30.2271 4.46856 30.7792 5.52069 31.1852C6.54082 31.5763 7.70196 31.8463 9.40617 31.9303C11.1094 32.0073 11.6505 32.0233 16 32.0233C20.3495 32.0233 20.8916 32.0023 22.5938 31.9303C24.298 31.8463 25.4592 31.5753 26.4793 31.1852C27.5314 30.7732 28.4276 30.2261 29.3127 29.336C30.2038 28.4509 30.7558 27.5598 31.1619 26.5026C31.5529 25.4825 31.823 24.3214 31.907 22.6171C31.984 20.9139 32 20.3729 32 16.0233C32 11.6738 31.979 11.1317 31.907 9.42949C31.823 7.72528 31.5519 6.55813 31.1619 5.54401C30.7498 4.49187 30.2028 3.59576 29.3127 2.71065C28.4276 1.81954 27.5364 1.26747 26.4793 0.86142C25.4592 0.465371 24.298 0.200338 22.5938 0.116327C20.8906 0.0393174 20.3495 0.0233154 16 0.0233154V0.0233154ZM16 2.90368C20.2715 2.90368 20.7816 2.92468 22.4698 2.99669C24.027 3.0697 24.8751 3.32973 25.4382 3.54976C26.1893 3.84079 26.7143 4.18484 27.2824 4.74691C27.8395 5.30398 28.1835 5.83504 28.4746 6.58614C28.6946 7.14921 28.9546 7.99731 29.0276 9.55451C29.0996 11.2427 29.1206 11.7538 29.1206 16.0243C29.1206 20.2948 29.0996 20.8059 29.0216 22.4941C28.9376 24.0513 28.6776 24.8994 28.4586 25.4625C28.1555 26.2136 27.8175 26.7387 27.2594 27.3067C26.6963 27.8638 26.1603 28.2078 25.4152 28.4989C24.8591 28.7189 23.999 28.9789 22.4358 29.0519C20.7386 29.124 20.2385 29.145 15.956 29.145C11.6735 29.145 11.1744 29.124 9.47518 29.0459C7.91799 28.9619 7.05888 28.7019 6.49581 28.4829C5.73572 28.1798 5.21465 27.8418 4.65658 27.2837C4.09351 26.7207 3.73547 26.1846 3.45943 25.4395C3.2354 24.8834 2.97937 24.0233 2.89636 22.4601C2.83935 20.7829 2.81235 20.2628 2.81235 16.0003C2.81235 11.7398 2.83935 11.2187 2.89636 9.5205C2.97937 7.95731 3.2354 7.0992 3.45943 6.54113C3.73547 5.78004 4.09451 5.25997 4.65658 4.6969C5.21365 4.13983 5.73572 3.77979 6.49581 3.49775C7.05888 3.27872 7.89699 3.01869 9.46018 2.94068C11.1574 2.87967 11.6575 2.85767 15.934 2.85767L16 2.90368ZM16 7.81129C11.4584 7.81129 7.78597 11.4887 7.78597 16.0253C7.78597 20.5669 11.4634 24.2393 16 24.2393C20.5416 24.2393 24.214 20.5619 24.214 16.0253C24.214 11.4837 20.5366 7.81129 16 7.81129ZM16 21.359C13.0516 21.359 10.6663 18.9737 10.6663 16.0253C10.6663 13.0769 13.0516 10.6916 16 10.6916C18.9484 10.6916 21.3337 13.0769 21.3337 16.0253C21.3337 18.9737 18.9484 21.359 16 21.359ZM26.4653 7.48325C26.4653 8.54638 25.6002 9.40449 24.5421 9.40449C23.4789 9.40449 22.6208 8.54538 22.6208 7.48325C22.6208 6.42612 23.4849 5.56601 24.5421 5.56601C25.5992 5.56601 26.4653 6.42612 26.4653 7.48325Z" fill="#000000"/>
</svg>