<svg xmlns="http://www.w3.org/2000/svg" width="32" height="27" viewBox="0 0 32 27" fill="none">
<path d="M10.052 26.0233C22.128 26.0233 28.734 16.0173 28.734 7.35533C28.734 7.07533 28.734 6.79133 28.722 6.51133C30.0081 5.5803 31.1181 4.42763 32 3.10733C30.7986 3.63703 29.5255 3.98614 28.222 4.14333C29.5951 3.3226 30.6234 2.03127 31.116 0.509328C29.826 1.27358 28.414 1.81008 26.942 2.09533C25.9524 1.04138 24.6428 0.343164 23.2162 0.108843C21.7895 -0.125477 20.3254 0.117171 19.0507 0.799203C17.7759 1.48123 16.7616 2.56459 16.1649 3.88145C15.5682 5.19831 15.4224 6.67519 15.75 8.08333C13.1395 7.95243 10.5856 7.27426 8.25409 6.09281C5.92254 4.91136 3.86537 3.25302 2.216 1.22533C1.37868 2.67149 1.12315 4.38213 1.50129 6.00986C1.87944 7.63759 2.86291 9.06039 4.252 9.98933C3.21108 9.95396 2.19304 9.67445 1.28 9.17333V9.26333C1.28179 10.7783 1.80661 12.2462 2.76575 13.4188C3.72488 14.5915 5.0595 15.3971 6.544 15.6993C5.98053 15.8546 5.39846 15.9319 4.814 15.9293C4.40197 15.9306 3.99076 15.8924 3.586 15.8153C4.00557 17.1194 4.82255 18.2597 5.92249 19.0763C7.02244 19.8929 8.35027 20.345 9.72 20.3693C7.39311 22.1969 4.5188 23.1881 1.56 23.1833C1.03864 23.1855 0.517646 23.1555 0 23.0933C3.00303 25.0079 6.4906 26.0244 10.052 26.0233Z" fill="#000000"/>
</svg>