<svg width="447" height="519" viewBox="0 0 447 519" fill="none" xmlns="http://www.w3.org/2000/svg">
<g clip-path="url(#clip0_600_47)">
<path d="M255.899 19.6887C381.103 44.4043 444.006 150.088 445.802 245.116C446.581 286.336 460.636 380.617 368.06 438.768C246.976 514.822 139.097 480.816 97.1389 458.125C39.5358 426.974 8.47365 367.327 24.3131 308.97C30.8286 284.972 20.0164 247.535 11.1146 229.704C-10.9859 185.431 -3.11702 126.284 62.0554 71.3178C110.508 30.4392 188.577 6.39943 255.899 19.6887Z" fill="#CE3C29"/>
<path d="M29.9508 167.136L104.478 125.623L118.344 150.452C120.645 154.571 122.11 159.102 122.656 163.787C123.203 168.471 122.82 173.218 121.53 177.755C120.239 182.291 118.067 186.53 115.136 190.228C112.205 193.926 108.574 197.012 104.449 199.308L92.7258 205.838C84.3979 210.475 74.5668 211.618 65.3948 209.017C56.2227 206.415 48.461 200.282 43.8166 191.965L29.9508 167.136Z" fill="#734665"/>
<path d="M42.1798 150.53C41.5707 150.87 40.9006 151.087 40.2077 151.168C39.5148 151.249 38.8127 151.193 38.1415 151.003C37.4703 150.813 36.8431 150.493 36.2958 150.061C35.7485 149.629 35.2918 149.093 34.9517 148.485L18.8547 119.66C18.5146 119.052 18.2977 118.383 18.2166 117.692C18.1355 117 18.1916 116.299 18.3818 115.629C18.572 114.959 18.8925 114.333 19.3251 113.786C19.7576 113.24 20.2937 112.784 20.9027 112.445C21.512 112.105 22.1823 111.889 22.8753 111.808C23.5683 111.727 24.2705 111.783 24.9417 111.973C25.6129 112.164 26.24 112.484 26.7872 112.916C27.3344 113.349 27.791 113.884 28.1308 114.493L44.2308 143.329C44.9119 144.557 45.0785 146.003 44.6941 147.353C44.3097 148.702 43.4056 149.845 42.1798 150.53Z" fill="#FECC86"/>
<path d="M79.9041 129.514C78.6753 130.2 77.2241 130.371 75.8689 129.99C74.5138 129.609 73.3654 128.706 72.676 127.48L56.579 98.6589C56.2389 98.0504 56.0222 97.381 55.9413 96.6889C55.8603 95.9968 55.9167 95.2955 56.1071 94.6251C56.2976 93.9548 56.6185 93.3285 57.0513 92.782C57.4842 92.2355 58.0207 91.7795 58.6301 91.4401C59.8604 90.7559 61.3123 90.5874 62.667 90.9715C64.0216 91.3555 65.1683 92.2608 65.8552 93.4885L81.9551 122.313C82.6363 123.54 82.8029 124.987 82.4185 126.336C82.0341 127.686 81.13 128.828 79.9041 129.514Z" fill="#FECC86"/>
<path d="M99.935 112.446L21.1005 156.358C18.6236 157.738 17.7356 160.862 19.117 163.336L22.5022 169.397C23.8836 171.871 27.0113 172.758 29.4882 171.378L108.323 127.466C110.8 126.086 111.688 122.962 110.306 120.489L106.921 114.427C105.54 111.953 102.412 111.066 99.935 112.446Z" fill="#734665"/>
<path d="M106.52 129.275L31.9993 170.781C31.8357 170.863 31.6466 170.879 31.4715 170.825C31.2965 170.771 31.1491 170.652 31.0601 170.492C30.9712 170.332 30.9476 170.144 30.9943 169.967C31.0409 169.79 31.1543 169.638 31.3106 169.543L105.822 128.028C105.986 127.936 106.18 127.914 106.36 127.965C106.541 128.017 106.693 128.137 106.785 128.301C106.876 128.465 106.898 128.658 106.847 128.839C106.796 129.019 106.675 129.171 106.511 129.263L106.52 129.275Z" fill="black"/>
<path d="M210.183 519C207.151 519 204.03 518.944 200.82 518.833C170.432 517.777 149.475 510.16 136.744 495.508C115.634 471.235 119.847 431.555 124.728 385.611C131.081 325.803 138.28 258.044 93.95 201.582L99.7258 197.058C120.338 223.31 132.064 254.267 135.594 291.692C138.645 324.11 135.13 357.181 132.028 386.385C127.33 430.625 123.269 468.836 142.286 490.699C153.604 503.713 172.827 510.519 201.072 511.5C238.2 512.789 262.079 506.53 276.179 491.796C286.44 481.079 291.926 465.317 293.441 442.192C294.866 420.449 292.773 394.286 290.351 363.99C286.398 314.592 281.482 253.116 290.689 185.255L297.965 186.238C288.863 253.319 293.746 314.359 297.666 363.407C300.112 393.987 302.223 420.395 300.765 442.67C299.13 467.61 293.004 484.835 281.482 496.865C267.112 511.889 244.317 519 210.183 519Z" fill="#49263E"/>
<path d="M104.463 199.283C105.938 198.458 107.354 197.53 108.7 196.507C105.211 193.317 99.5552 189.45 93.953 191.226C86.4674 193.619 87.2759 201.34 90.1294 207.12C91.0067 206.72 91.881 206.292 92.7403 205.814L104.463 199.283Z" fill="#734665"/>
<path d="M231.879 68.6115C237.943 25.4123 277.922 -4.69791 321.173 1.35763C364.425 7.41317 394.568 47.3379 388.505 90.54C385.642 111.127 374.744 129.747 358.188 142.34C358.188 142.34 330.941 164.337 319.056 190.808C319.056 190.808 304.72 193.532 294.357 192.345C284.066 190.64 271.032 184.085 271.032 184.085C266.903 155.378 246.755 126.742 246.755 126.742C234.308 110.085 228.961 89.1896 231.879 68.6115Z" fill="#FECC86"/>
<path d="M322.051 184.866L319.113 205.781C318.483 210.254 316.529 214.437 313.502 217.794C310.475 221.151 306.513 223.528 302.124 224.62C301.312 227.465 299.497 229.922 297.014 231.536C294.532 233.149 291.548 233.812 288.614 233.402C285.68 232.991 282.994 231.535 281.051 229.302C279.108 227.068 278.039 224.209 278.041 221.25C274.127 218.991 270.977 215.616 268.994 211.558C267.011 207.5 266.286 202.944 266.912 198.472L269.849 177.557L322.051 184.866Z" fill="#4CB7D8"/>
<g style="mix-blend-mode:multiply" opacity="0.3">
<path d="M231.879 68.6115C234.016 53.2087 240.678 38.7849 251.024 27.1647C266.02 86.7362 297.231 129.762 347.789 151.834C339.944 159.588 329.324 171.43 322.039 184.863L269.858 177.557C263.983 151.188 246.782 126.739 246.782 126.739C234.326 110.087 228.969 89.1922 231.879 68.6115Z" fill="#FECC86"/>
</g>
<path d="M278.29 123.237C276.613 84.2004 279.907 63.9525 288.36 61.3359C294.917 59.3084 298.285 61.9609 299.956 64.5446C300.194 64.9117 300.409 65.2932 300.6 65.6869C303.504 64.9064 307.154 64.6432 311.742 65.2862L314.002 65.6032C318.586 66.2461 322.024 67.4991 324.602 69.0451C324.893 68.7196 325.204 68.412 325.533 68.1241C327.851 66.0996 331.821 64.4728 337.567 68.2257C344.975 73.0612 342.564 93.4347 330.207 130.507C321.254 157.36 310.146 183.239 310.041 183.496L307.885 182.572C307.996 182.312 319.062 156.517 327.985 129.753C343.462 83.3182 339.827 72.502 336.282 70.1874C332.659 67.819 329.56 67.7204 327.078 69.8884C326.895 70.0469 326.722 70.2143 326.551 70.3938C328.27 71.7189 329.672 73.4094 330.656 75.3427C331.64 77.2761 332.181 79.4039 332.24 81.5718C332.333 87.2267 329.078 92.403 324.988 93.1118C323.997 93.2852 322.152 93.1805 320.91 90.5819C318.937 86.4492 319.482 76.8829 323.171 70.9709C320.631 69.4937 317.434 68.45 313.682 67.9237L311.421 67.6067C307.666 67.0804 304.307 67.209 301.459 67.9297C303.379 74.6281 301.268 83.9761 298.235 87.4061C296.321 89.5681 294.519 89.1585 293.614 88.7219C289.878 86.9276 288.174 81.0455 289.818 75.6329C290.469 73.5655 291.573 71.6687 293.049 70.0799C294.525 68.491 296.336 67.2499 298.351 66.4464C298.235 66.2281 298.112 66.0188 297.98 65.8155C296.184 63.0494 293.189 62.2958 289.048 63.5757C285.003 64.8286 278.53 74.2304 280.628 123.126C281.826 151.305 285.38 179.148 285.419 179.426L283.093 179.725C283.048 179.444 279.488 151.517 278.29 123.237ZM323.021 89.5711C323.686 90.9617 324.335 90.845 324.581 90.8032C327.21 90.3486 329.97 86.5448 329.89 81.6107C329.827 77.8608 328.141 74.673 325.099 72.2837C321.955 77.4002 321.323 86.0335 323.012 89.5711H323.021ZM292.063 76.3147C290.629 81.0366 292.234 85.4504 294.635 86.6106C294.86 86.7183 295.453 87.0084 296.474 85.8541C299.073 82.9175 300.84 74.4427 299.229 68.6623C295.639 70.1246 293.138 72.7263 292.063 76.3147Z" fill="#F99247"/>
<path d="M322.353 185.467C323.227 183.771 323.599 183.158 324.419 181.813L324.862 181.08C337.842 159.642 358.353 142.962 358.559 142.803L358.622 142.749C375.275 130.077 386.224 111.334 389.077 90.6207C395.176 47.1704 364.742 6.86892 321.239 0.7775C308.126 -1.0752 294.757 0.372969 282.347 4.99051C269.936 9.60806 258.877 17.2487 250.174 27.2185L251.057 27.99C259.632 18.1667 270.528 10.6383 282.755 6.08864C294.983 1.53896 308.155 0.112132 321.075 1.93777C363.94 7.93948 393.924 47.6489 387.915 90.4533C385.097 110.896 374.275 129.387 357.823 141.87L356.957 142.531L357.011 142.549C353.065 145.88 335.453 161.281 323.85 180.47L323.407 181.203C322.575 182.569 322.209 183.194 321.311 184.926L322.353 185.467Z" fill="#21111D"/>
<path d="M369.952 51.1207L371.111 50.9532C371.084 50.7529 367.994 30.6904 349.529 20.7234L348.969 21.7551C366.919 31.435 369.914 50.9263 369.952 51.1207Z" fill="#21111D"/>
<path d="M365.383 57.58L366.545 57.4125C366.515 57.2091 363.428 37.1466 344.96 27.1826L344.403 28.2143C362.338 37.8912 365.353 57.3826 365.383 57.58Z" fill="#21111D"/>
<path d="M286.928 224.761L292.617 225.559C298.94 226.436 305.352 224.773 310.448 220.934C315.544 217.096 318.908 211.396 319.802 205.084L322.709 184.366L269.906 176.977L269.744 178.137L321.38 185.365L318.634 204.922C317.784 210.927 314.584 216.35 309.736 220.001C304.888 223.652 298.787 225.234 292.773 224.399L287.084 223.6C281.128 222.783 275.739 219.645 272.092 214.871L271.161 215.586C274.997 220.605 280.665 223.903 286.928 224.761Z" fill="#21111D"/>
<path d="M288.195 233.938C299.513 235.523 302.684 224.788 302.717 224.668L301.588 224.348C301.468 224.761 298.57 234.444 287.982 232.721L287.794 233.875L288.195 233.938Z" fill="#21111D"/>
<path d="M250.336 115.842L251.159 115.007C241.898 105.902 242.066 92.8785 242.069 92.7559L240.895 92.732C240.892 92.8665 240.706 106.374 250.336 115.842Z" fill="#21111D"/>
<path d="M253.408 110.591L254.231 109.756C247.479 103.118 247.599 93.6261 247.602 93.5304L246.428 93.5065C246.419 93.9132 246.288 103.59 253.408 110.591Z" fill="#21111D"/>
<path d="M322.982 195.628L323.159 194.471C322.718 194.402 278.772 187.671 265.555 180.527L264.999 181.558C278.392 188.798 321.17 195.362 322.982 195.628Z" fill="#21111D"/>
<path d="M321.604 205.428L321.787 204.27C321.308 204.193 273.664 196.558 265.403 190.53L264.711 191.478C273.2 197.671 319.631 205.114 321.604 205.428Z" fill="#21111D"/>
<path d="M317.796 215.15L317.967 213.989C317.535 213.923 274.727 207.473 264.07 199.934L263.394 200.891C274.275 208.589 316.017 214.883 317.796 215.15Z" fill="#21111D"/>
<g opacity="0.5">
<path d="M284.383 34.7617C294.097 30.2749 300.232 22.8815 298.086 18.2481C295.941 13.6147 286.327 13.4959 276.613 17.9828C266.899 22.4696 260.763 29.863 262.909 34.4964C265.055 39.1298 274.669 39.2486 284.383 34.7617Z" fill="#F3FFFE"/>
</g>
</g>
<defs>
<clipPath id="clip0_600_47">
<rect width="447" height="519" fill="white"/>
</clipPath>
</defs>
</svg>
