<svg width="62" height="62" viewBox="0 0 62 62" fill="none" xmlns="http://www.w3.org/2000/svg">
<path d="M11.725 1.22199C12.1069 1.40564 12.4293 1.69342 12.6548 2.05221C12.8804 2.41099 13 2.82619 13 3.24999C13 5.73999 13.936 7.17399 15.109 8.91999L15.196 9.04599C16.192 10.528 17.5 12.469 17.5 15.25C17.5 18.088 16.069 20.59 13.888 22.075C14.461 22.555 14.968 23.146 15.406 23.854C16.834 26.164 17.5 29.695 17.5 34.765C17.5 39.901 16.81 46.069 15.685 50.995C15.127 53.443 14.434 55.702 13.609 57.397C13.2195 58.2404 12.7036 59.0193 12.079 59.707C11.461 60.34 10.51 61.015 9.25 61.015C7.99 61.015 7.039 60.34 6.424 59.707C5.79763 59.0207 5.2815 58.2415 4.894 57.397C4.066 55.699 3.373 53.443 2.815 50.992C1.64484 45.6602 1.03652 40.2205 1 34.762C1 29.692 1.666 26.164 3.094 23.854C3.50139 23.1835 4.01393 22.5828 4.612 22.075C3.49832 21.3189 2.58681 20.3015 1.95716 19.1117C1.3275 17.922 0.998876 16.5961 1 15.25C1 14.146 1 12.247 2.149 9.79599C3.274 7.39599 5.413 4.63899 9.343 1.49199C9.67423 1.22704 10.0736 1.06111 10.495 1.01334C10.9165 0.965569 11.3429 1.0379 11.725 1.22199ZM5.5 15.247C5.5 16.2416 5.89509 17.1984 6.59835 17.9016C7.30161 18.6049 8.25544 19 9.25 19C10.2446 19 11.1984 18.6049 11.9017 17.9016C12.6049 17.1984 13 16.2446 13 15.25C13 13.933 12.445 13.021 11.374 11.428L11.338 11.374C10.651 10.354 9.838 9.14499 9.262 7.59399C7.633 9.24999 6.733 10.624 6.226 11.704C5.5 13.252 5.5 14.356 5.5 15.247ZM6.922 26.218C6.178 27.424 5.5 29.896 5.5 34.765C5.5 39.568 6.154 45.4 7.201 49.993C7.729 52.303 8.329 54.178 8.938 55.426C9.049 55.657 9.154 55.849 9.25 56.011C9.346 55.849 9.451 55.657 9.562 55.426C10.171 54.178 10.771 52.3 11.299 49.993C12.349 45.403 13 39.571 13 34.765C13 29.896 12.322 27.424 11.578 26.218C11.3536 25.812 11.0145 25.4812 10.603 25.267C10.177 25.0814 9.71428 24.9953 9.25 25.015C8.65 25.015 8.221 25.108 7.897 25.267C7.48553 25.4812 7.14638 25.812 6.922 26.218ZM25 39.754C23.4106 39.4874 21.8646 39.007 20.404 38.326C20.4918 36.6245 20.5168 34.9203 20.479 33.217C21.832 34.126 23.359 34.795 25 35.167V26.5C25 25.3065 25.4741 24.1619 26.318 23.318C27.1619 22.4741 28.3065 22 29.5 22H41.5C41.4999 19.4821 40.7956 17.0144 39.4666 14.8757C38.1377 12.737 36.2372 11.0126 33.9798 9.89732C31.7223 8.78202 29.198 8.32028 26.6919 8.56426C24.1858 8.80823 21.7979 9.74821 19.798 11.278C19.198 9.61899 18.343 8.34999 17.749 7.46799L17.629 7.28799C20.3244 5.38793 23.4899 4.26485 26.7801 4.04135C30.0703 3.81786 33.3586 4.50253 36.2862 6.02064C39.2138 7.53875 41.668 9.83194 43.381 12.6499C45.094 15.4678 46 18.7022 46 22H56.5C57.6935 22 58.8381 22.4741 59.682 23.318C60.5259 24.1619 61 25.3065 61 26.5V53.5C61 54.6935 60.5259 55.8381 59.682 56.682C58.8381 57.5259 57.6935 58 56.5 58H29.5C28.3065 58 27.1619 57.5259 26.318 56.682C25.4741 55.8381 25 54.6935 25 53.5V39.751V39.754ZM29.5 39.943V53.503H56.5V26.503H45.43C44.4953 30.1181 42.4603 33.3533 39.6064 35.7611C36.7525 38.1689 33.2208 39.6303 29.5 39.943ZM40.732 26.503H29.5V35.422C32.0206 35.1394 34.4107 34.153 36.3971 32.5758C38.3834 30.9985 39.8856 28.894 40.732 26.503Z" fill="#C94920" stroke="#C94920"/>
</svg>
