<svg width="70" height="58" viewBox="0 0 70 58" fill="none" xmlns="http://www.w3.org/2000/svg">
<path d="M19.16 20.3431L8.77064 29L19.16 37.6569C19.5046 37.9392 19.7898 38.287 19.9993 38.6802C20.2088 39.0733 20.3384 39.5041 20.3806 39.9476C20.4228 40.391 20.3768 40.8385 20.2452 41.2641C20.1136 41.6897 19.8991 42.085 19.614 42.4273C19.3288 42.7696 18.9788 43.0521 18.584 43.2584C18.1891 43.4647 17.7574 43.5909 17.3136 43.6295C16.8698 43.6682 16.4227 43.6186 15.9982 43.4836C15.5736 43.3486 15.18 43.131 14.84 42.8431L1.34001 31.5931C0.959796 31.2764 0.653882 30.8799 0.443944 30.4318C0.234007 29.9837 0.125183 29.4949 0.125183 29C0.125183 28.5051 0.234007 28.0163 0.443944 27.5682C0.653882 27.1201 0.959796 26.7236 1.34001 26.4069L14.84 15.1569C15.5287 14.5925 16.4126 14.3231 17.299 14.4074C18.1854 14.4918 19.0026 14.923 19.5725 15.6072C20.1424 16.2914 20.4188 17.173 20.3416 18.0601C20.2643 18.9472 19.8396 19.7678 19.16 20.3431ZM68.66 26.4069L55.16 15.1569C54.82 14.869 54.4264 14.6513 54.0019 14.5164C53.5773 14.3814 53.1302 14.3318 52.6864 14.3705C52.2426 14.4091 51.8109 14.5352 51.4161 14.7416C51.0213 14.9479 50.6712 15.2304 50.3861 15.5727C50.101 15.915 49.8864 16.3103 49.7549 16.7359C49.6233 17.1615 49.5773 17.609 49.6195 18.0524C49.6617 18.4959 49.7912 18.9267 50.0007 19.3198C50.2102 19.713 50.4955 20.0607 50.84 20.3431L61.2294 29L50.84 37.6569C50.4955 37.9392 50.2102 38.287 50.0007 38.6802C49.7912 39.0733 49.6617 39.5041 49.6195 39.9476C49.5773 40.391 49.6233 40.8385 49.7549 41.2641C49.8864 41.6897 50.101 42.085 50.3861 42.4273C50.6712 42.7696 51.0213 43.0521 51.4161 43.2584C51.8109 43.4647 52.2426 43.5909 52.6864 43.6295C53.1302 43.6682 53.5773 43.6186 54.0019 43.4836C54.4264 43.3486 54.82 43.131 55.16 42.8431L68.66 31.5931C69.0402 31.2764 69.3461 30.8799 69.5561 30.4318C69.766 29.9837 69.8748 29.4949 69.8748 29C69.8748 28.5051 69.766 28.0163 69.5561 27.5682C69.3461 27.1201 69.0402 26.7236 68.66 26.4069ZM45.1531 1.07749C44.7365 0.925987 44.2941 0.858039 43.8513 0.877532C43.4084 0.897025 42.9737 1.00358 42.572 1.1911C42.1703 1.37863 41.8095 1.64345 41.5102 1.97045C41.2109 2.29744 40.9789 2.68021 40.8275 3.09687L22.8275 52.5969C22.5224 53.4379 22.5637 54.3657 22.9424 55.1763C23.321 55.9869 24.0061 56.614 24.8469 56.9197C25.216 57.056 25.6065 57.1255 26 57.125C26.693 57.1251 27.3691 56.9119 27.9367 56.5144C28.5043 56.1169 28.9358 55.5544 29.1725 54.9031L47.1725 5.40312C47.324 4.98651 47.392 4.54413 47.3725 4.10125C47.353 3.65837 47.2464 3.22367 47.0589 2.82198C46.8714 2.42029 46.6066 2.05948 46.2796 1.76016C45.9526 1.46083 45.5698 1.22886 45.1531 1.07749Z" fill="#C94920"/>
</svg>
