<svg width="487" height="487" viewBox="0 0 487 487" fill="none" xmlns="http://www.w3.org/2000/svg">
<g clip-path="url(#clip0_432_69)">
<g filter="url(#filter0_i_432_69)">
<path d="M197.898 344.814C183.057 335.224 163.253 339.482 153.663 354.322C163.253 339.481 158.995 319.676 144.155 310.087C129.314 300.497 109.509 304.755 99.9197 319.595C109.509 304.754 105.252 284.949 90.4118 275.359C75.5707 265.77 55.7663 270.027 46.1766 284.867L13.3764 335.629C3.78667 350.47 8.04411 370.274 22.8843 379.864C37.7254 389.454 57.5298 385.196 67.1195 370.356C57.5298 385.197 61.7872 405.001 76.6274 414.591C91.4685 424.181 111.273 419.923 120.863 405.083C111.273 419.924 115.53 439.729 130.371 449.318C145.211 458.908 165.016 454.651 174.606 439.81L207.406 389.049C216.996 374.208 212.738 354.403 197.898 344.814Z" fill="#FDA909"/>
</g>
<g filter="url(#filter1_i_432_69)">
<path d="M415.283 257.282L414.425 256.724L251.404 150.581L225.429 190.005C213.823 207.865 194.186 218.524 172.863 218.524C160.797 218.524 149.049 215.055 138.891 208.491C109.876 189.742 101.522 150.882 120.245 121.907L135.849 97.6758L81.1026 84.5049L0 251.943L19.8881 269.061L20.4255 268.228C32.0202 250.285 51.7047 239.573 73.0804 239.574C85.147 239.575 96.894 243.045 107.05 249.607C116.666 255.82 124.233 264.343 129.181 274.345C140.416 274.768 151.3 278.201 160.793 284.335C170.409 290.548 177.977 299.07 182.924 309.072C194.159 309.494 205.042 312.925 214.536 319.062C243.551 337.811 251.905 376.671 233.155 405.686L215.764 432.601L242.689 450.451C257.53 460.041 277.334 455.783 286.924 440.943C296.514 426.102 292.256 406.298 277.416 396.708L288.299 403.741C303.14 413.331 322.945 409.073 332.534 394.233C342.124 379.392 337.867 359.589 323.027 349.999L333.91 357.031C348.751 366.621 368.555 362.363 378.145 347.523C387.734 332.683 383.479 312.881 368.641 303.291L379.52 310.321C394.362 319.91 414.166 315.653 423.756 300.813C433.12 286.324 429.279 267.109 415.283 257.282Z" fill="#EC513C"/>
</g>
<g filter="url(#filter2_i_432_69)">
<path d="M444.262 31.422L210.178 38.8782L146.022 138.504C136.432 153.345 140.69 173.149 155.53 182.739C170.371 192.329 190.176 188.071 199.765 173.231L242.58 108.251L251.953 114.354L420.905 224.359L487 175.414L444.262 31.422Z" fill="#FDA909"/>
</g>
</g>
<defs>
<filter id="filter0_i_432_69" x="8.25085" y="270.234" width="204.281" height="184.21" filterUnits="userSpaceOnUse" color-interpolation-filters="sRGB">
<feFlood flood-opacity="0" result="BackgroundImageFix"/>
<feBlend mode="normal" in="SourceGraphic" in2="BackgroundImageFix" result="shape"/>
<feColorMatrix in="SourceAlpha" type="matrix" values="0 0 0 0 0 0 0 0 0 0 0 0 0 0 0 0 0 0 127 0" result="hardAlpha"/>
<feOffset dx="7" dy="26"/>
<feComposite in2="hardAlpha" operator="arithmetic" k2="-1" k3="1"/>
<feColorMatrix type="matrix" values="0 0 0 0 0.92549 0 0 0 0 0.317647 0 0 0 0 0.235294 0 0 0 1 0"/>
<feBlend mode="normal" in2="shape" result="effect1_innerShadow_432_69"/>
</filter>
<filter id="filter1_i_432_69" x="0" y="84.5049" width="428.881" height="371.072" filterUnits="userSpaceOnUse" color-interpolation-filters="sRGB">
<feFlood flood-opacity="0" result="BackgroundImageFix"/>
<feBlend mode="normal" in="SourceGraphic" in2="BackgroundImageFix" result="shape"/>
<feColorMatrix in="SourceAlpha" type="matrix" values="0 0 0 0 0 0 0 0 0 0 0 0 0 0 0 0 0 0 127 0" result="hardAlpha"/>
<feOffset dx="17" dy="29"/>
<feComposite in2="hardAlpha" operator="arithmetic" k2="-1" k3="1"/>
<feColorMatrix type="matrix" values="0 0 0 0 0.992157 0 0 0 0 0.662745 0 0 0 0 0.0352941 0 0 0 1 0"/>
<feBlend mode="normal" in2="shape" result="effect1_innerShadow_432_69"/>
</filter>
<filter id="filter2_i_432_69" x="140.897" y="31.422" width="346.103" height="192.937" filterUnits="userSpaceOnUse" color-interpolation-filters="sRGB">
<feFlood flood-opacity="0" result="BackgroundImageFix"/>
<feBlend mode="normal" in="SourceGraphic" in2="BackgroundImageFix" result="shape"/>
<feColorMatrix in="SourceAlpha" type="matrix" values="0 0 0 0 0 0 0 0 0 0 0 0 0 0 0 0 0 0 127 0" result="hardAlpha"/>
<feOffset dx="15" dy="27"/>
<feComposite in2="hardAlpha" operator="arithmetic" k2="-1" k3="1"/>
<feColorMatrix type="matrix" values="0 0 0 0 0.92549 0 0 0 0 0.317647 0 0 0 0 0.235294 0 0 0 1 0"/>
<feBlend mode="normal" in2="shape" result="effect1_innerShadow_432_69"/>
</filter>
<clipPath id="clip0_432_69">
<rect width="487" height="487" fill="white"/>
</clipPath>
</defs>
</svg>
